<svg id="visual" viewBox="0 0 960 540" width="960" height="540" xmlns="http://www.w3.org/2000/svg" xmlns:xlink="http://www.w3.org/1999/xlink" version="1.1"><rect x="0" y="0" width="960" height="540" fill="#185FF0"></rect><defs><linearGradient id="grad1_0" x1="43.8%" y1="100%" x2="100%" y2="0%"><stop offset="14.444444444444446%" stop-color="#185ff0" stop-opacity="1"></stop><stop offset="85.55555555555554%" stop-color="#185ff0" stop-opacity="1"></stop></linearGradient></defs><defs><linearGradient id="grad2_0" x1="0%" y1="100%" x2="56.3%" y2="0%"><stop offset="14.444444444444446%" stop-color="#185ff0" stop-opacity="1"></stop><stop offset="85.55555555555554%" stop-color="#185ff0" stop-opacity="1"></stop></linearGradient></defs><g transform="translate(960, 540)"><path d="M-270 0C-261 -33.3 -252 -66.6 -240.2 -99.5C-228.5 -132.4 -214 -164.9 -190.9 -190.9C-167.9 -216.9 -136.2 -236.4 -102.9 -248.5C-69.7 -260.6 -34.8 -265.3 0 -270L0 0Z" fill="#051D6F"></path></g><g transform="translate(0, 0)"><path d="M270 0C259.9 32.6 249.7 65.1 238.4 98.7C227 132.4 214.5 167 190.9 190.9C167.4 214.8 132.8 227.9 99.1 239.3C65.5 250.7 32.7 260.3 0 270L0 0Z" fill="#051D6F"></path></g></svg>