<svg id="visual" viewBox="0 0 675 900" width="675" height="900" xmlns="http://www.w3.org/2000/svg" xmlns:xlink="http://www.w3.org/1999/xlink" version="1.1"><rect x="0" y="0" width="675" height="900" fill="#185ff0"></rect><defs><linearGradient id="grad1_0" x1="0%" y1="100%" x2="100%" y2="0%"><stop offset="30%" stop-color="#185ff0" stop-opacity="1"></stop><stop offset="70%" stop-color="#185ff0" stop-opacity="1"></stop></linearGradient></defs><defs><linearGradient id="grad2_0" x1="0%" y1="100%" x2="100%" y2="0%"><stop offset="30%" stop-color="#185ff0" stop-opacity="1"></stop><stop offset="70%" stop-color="#185ff0" stop-opacity="1"></stop></linearGradient></defs><g transform="translate(675, 900)"><path d="M-393.7 0C-388.4 -52 -383.1 -104 -363.8 -150.7C-344.5 -197.3 -311.3 -238.6 -273.7 -273.7C-236 -308.7 -194.1 -337.6 -147.7 -356.6C-101.4 -375.6 -50.7 -384.7 0 -393.7L0 0Z" fill="#05176f"></path></g><g transform="translate(0, 0)"><path d="M393.8 0C386 50.8 378.2 101.5 360.3 149.2C342.5 197 314.6 241.6 278.4 278.4C242.3 315.2 197.8 344.2 150 362.2C102.2 380.1 51.1 386.9 0 393.8L0 0Z" fill="#05176f"></path></g></svg>